<svg xmlns="http://www.w3.org/2000/svg" width="55" height="55"><g fill="none" fill-rule="evenodd"><path fill="none" d="M0 0h55v55H0z"/><g fill-rule="nonzero"><path fill="#6D6D6D" d="M38.0414 41.0775V31.001h11.4712L51.5 28.9787V17.6818l-1.9874-2.0222H38.0414V9h-2.1966v6.6596H24.4085l-2.0223 2.0222v11.2969l2.0223 2.0223h11.4363v10.0765h2.1966Zm10.5647-12.2731H38.0414V17.8562h10.5647l.6973.6973v9.5187l-.6973.7322Zm-12.7613 0H25.315l-.7322-.7322v-9.5187l.7322-.6973h10.5298v10.9482Z"/><path fill="#000" d="M19.1552 46.8886V36.8121h11.4712l1.9874-2.0223V23.493l-1.9874-2.0223H19.1552v-6.6596h-2.1966v6.6596H5.5223L3.5 23.493v11.2968l2.0223 2.0223h11.4363v10.0765h2.1966ZM29.72 34.6155H19.1552V23.6673H29.72l.6973.6973v9.5187l-.6973.7322Zm-12.7613 0H6.4288l-.7322-.7322v-9.5187l.7322-.6973h10.5298v10.9482Z"/></g></g></svg>